<?xml version="1.0" encoding="utf-8"?>
<!-- Generator: Adobe Illustrator 16.0.4, SVG Export Plug-In . SVG Version: 6.00 Build 0)  -->
<!DOCTYPE svg PUBLIC "-//W3C//DTD SVG 1.1//EN" "http://www.w3.org/Graphics/SVG/1.1/DTD/svg11.dtd">
<svg version="1.1" id="Layer_1" xmlns="http://www.w3.org/2000/svg" xmlns:xlink="http://www.w3.org/1999/xlink" x="0px" y="0px"
	 width="29.333px" height="17.479px" viewBox="0 0 29.333 17.479" enable-background="new 0 0 29.333 17.479" xml:space="preserve">
<g>
	<g>
		<g>
			<path fill-rule="evenodd" clip-rule="evenodd" d="M26.831,11.101c0.004-0.003,0.009-0.008,0.014-0.011
				c-0.005,0.063-0.014,0.126-0.027,0.188c-0.022,0.019-0.044,0.035-0.064,0.05L26.831,11.101z"/>
			<path fill-rule="evenodd" clip-rule="evenodd" d="M18.367,6.701c-0.12,0.823-0.942,1.329-0.942,1.329
				c-1.746,1.62-1.251,3.303-0.82,5.391c0.432,2.087,1.542,2.642,2.188,2.633c0.675-0.01,1.312-0.733,2.908,0.292
				c1.596,1.024,3.224,0.959,4.591,0.416c1.104-0.438,1.236-1.574,1.247-1.994c-0.394,0.248-0.83,0.515-1.007,0.596
				c-0.417,0.19-1.053,0.328-1.478,0.322c-0.319-0.003-1.366-0.217-2.379-0.424c-0.854-0.176-1.91-0.489-1.91-0.489
				c0.262,0.014,1.075,0.182,1.936,0.357c0.96,0.197,2.046,0.42,2.354,0.421c0.408,0.006,1.03-0.126,1.432-0.311
				c0.184-0.084,0.64-0.375,1.072-0.631l0,0c2.158-1.532,1.722-2.613,1.525-3.825c-0.142-0.868-0.517-1.263-0.713-1.417
				c-0.253,0.709-1.081,1.545-1.551,1.91c-0.051,0.229-0.168,0.436-0.384,0.599c-0.273,0.213-1.245,0.92-2.241,1.068
				c-0.943,0.143-2.623,0.067-3.21-0.143l0.045-0.126c0.572,0.204,2.216,0.274,3.143,0.137c0.965-0.145,1.912-0.834,2.18-1.044
				c0.498-0.375,0.386-1.044,0.232-1.586c-0.221-0.778-0.696-1.333-1.176-1.817l0.095-0.095c0.493,0.498,0.98,1.069,1.21,1.876
				c0.084,0.297,0.156,0.632,0.131,0.943c0.437-0.328,1.15-1.08,1.402-1.803c-0.006-0.003-0.011-0.004-0.011-0.004
				c0.541-1.247-1.122-3.126-1.122-3.126c-3.409-3.69-7.381-0.66-7.523-0.549c0.938,0.118,2.895,0.4,3.429,0.595
				c0.635,0.218,1.017,0.467,1.408,0.912c0.557,0.618,0.823,1.22,0.84,1.897c0.005,0.728-0.077,1.447-0.3,2.018
				c0.198-0.56,0.17-1.341,0.167-2.016c-0.017-0.644-0.271-1.219-0.808-1.811c-0.375-0.426-0.74-0.665-1.351-0.875
				c-0.593-0.216-2.966-0.54-3.688-0.624C18.956,5.838,18.449,6.129,18.367,6.701z M20.136,10.922
				c-0.308-0.364-0.329-0.566-0.347-0.586c0.658,0.683,1.909,1.098,2.758,1.027c0.549-0.05,1.357-0.229,1.805-1.024
				c0.207-0.366,0.336-0.816,0.244-1.179c-0.109-0.446-0.592-0.906-1.231-1.175c-0.588-0.249-1.187-0.017-1.512,0.274
				c-0.325,0.29-0.479,0.537-0.462,1.063c0.014,0.419,0.111,0.726,0.51,0.932c0.22,0.11,0.752,0.442,1.237-0.005
				c0.184-0.165,0.287-0.387,0.285-0.605c-0.001-0.189-0.081-0.361-0.227-0.492c-0.275-0.244-0.681-0.467-1.05-0.132
				c-0.163,0.146-0.292,0.397-0.211,0.625c0.032,0.111,0.121,0.206,0.223,0.238c0.058,0.019,0.187,0.078,0.273,0.008
				c-0.104,0.084-0.189,0.16-0.313,0.122c-0.144-0.047-0.267-0.178-0.311-0.327c-0.108-0.304,0.066-0.604,0.247-0.767
				c0.347-0.312,0.791-0.306,1.277,0.043c0.665,0.479,0.462,1.28,0.274,1.494c-0.452,0.518-1.542,0.708-2.179,0.387
				c-0.446-0.229-0.742-1.037-0.619-1.548c0.132-0.558,0.432-1.168,0.972-1.479c0.396-0.237,1.097-0.299,1.724-0.033
				c0.678,0.285,1.382,1.027,1.5,1.512c0.101,0.402-0.078,1.127-0.344,1.503c-0.44,0.624-1.512,0.928-2.092,0.979
				C21.71,11.849,20.441,11.287,20.136,10.922z M20.59,7.261c0.037,0.009,0.115,0.108,0.115,0.108
				c-0.796-0.229-1.764,0.526-2.079,1.146c-0.477,0.938-0.488,1.97-0.032,3.066c0.847,1.957,3.049,2.993,4.454,2.612
				c0,0-0.211,0.08-0.244,0.086c-1.203,0.211-2.325-0.281-3.282-1.17c-0.454-0.438-0.824-0.95-1.053-1.477
				c-0.471-1.135-0.457-2.206,0.038-3.18C18.843,7.793,19.733,7.04,20.59,7.261z"/>
		</g>
		<g>
			<path opacity="0.6" d="M26.831,11.101c0.004-0.003,0.009-0.008,0.014-0.011c-0.005,0.063-0.014,0.126-0.027,0.188
				c-0.022,0.019-0.044,0.035-0.064,0.05L26.831,11.101z"/>
			<path opacity="0.6" d="M18.367,6.701c-0.12,0.823-0.942,1.329-0.942,1.329c-1.746,1.62-1.251,3.303-0.82,5.391
				c0.432,2.087,1.542,2.642,2.188,2.633c0.675-0.01,1.312-0.733,2.908,0.292c1.596,1.024,3.224,0.959,4.591,0.416
				c1.104-0.438,1.236-1.574,1.247-1.994c-0.394,0.248-0.83,0.515-1.007,0.596c-0.417,0.19-1.053,0.328-1.478,0.322
				c-0.319-0.003-1.366-0.217-2.379-0.424c-0.854-0.176-1.91-0.489-1.91-0.489c0.262,0.014,1.075,0.182,1.936,0.357
				c0.96,0.197,2.046,0.42,2.354,0.421c0.408,0.006,1.03-0.126,1.432-0.311c0.184-0.084,0.64-0.375,1.072-0.631l0,0
				c2.158-1.532,1.722-2.613,1.525-3.825c-0.142-0.868-0.517-1.263-0.713-1.417c-0.253,0.709-1.081,1.545-1.551,1.91
				c-0.051,0.229-0.168,0.436-0.384,0.599c-0.273,0.213-1.245,0.92-2.241,1.068c-0.943,0.143-2.623,0.067-3.21-0.143l0.045-0.126
				c0.572,0.204,2.216,0.274,3.143,0.137c0.965-0.145,1.912-0.834,2.18-1.044c0.498-0.375,0.386-1.044,0.232-1.586
				c-0.221-0.778-0.696-1.333-1.176-1.817l0.095-0.095c0.493,0.498,0.98,1.069,1.21,1.876c0.084,0.297,0.156,0.632,0.131,0.943
				c0.437-0.328,1.15-1.08,1.402-1.803c-0.006-0.003-0.011-0.004-0.011-0.004c0.541-1.247-1.122-3.126-1.122-3.126
				c-3.409-3.69-7.381-0.66-7.523-0.549c0.938,0.118,2.895,0.4,3.429,0.595c0.635,0.218,1.017,0.467,1.408,0.912
				c0.557,0.618,0.823,1.22,0.84,1.897c0.005,0.728-0.077,1.447-0.3,2.018c0.198-0.56,0.17-1.341,0.167-2.016
				c-0.017-0.644-0.271-1.219-0.808-1.811c-0.375-0.426-0.74-0.665-1.351-0.875c-0.593-0.216-2.966-0.54-3.688-0.624
				C18.956,5.838,18.449,6.129,18.367,6.701z M20.136,10.922c-0.308-0.364-0.329-0.566-0.347-0.586
				c0.658,0.683,1.909,1.098,2.758,1.027c0.549-0.05,1.357-0.229,1.805-1.024c0.207-0.366,0.336-0.816,0.244-1.179
				c-0.109-0.446-0.592-0.906-1.231-1.175c-0.588-0.249-1.187-0.017-1.512,0.274c-0.325,0.29-0.479,0.537-0.462,1.063
				c0.014,0.419,0.111,0.726,0.51,0.932c0.22,0.11,0.752,0.442,1.237-0.005c0.184-0.165,0.287-0.387,0.285-0.605
				c-0.001-0.189-0.081-0.361-0.227-0.492c-0.275-0.244-0.681-0.467-1.05-0.132c-0.163,0.146-0.292,0.397-0.211,0.625
				c0.032,0.111,0.121,0.206,0.223,0.238c0.058,0.019,0.187,0.078,0.273,0.008c-0.104,0.084-0.189,0.16-0.313,0.122
				c-0.144-0.047-0.267-0.178-0.311-0.327c-0.108-0.304,0.066-0.604,0.247-0.767c0.347-0.312,0.791-0.306,1.277,0.043
				c0.665,0.479,0.462,1.28,0.274,1.494c-0.452,0.518-1.542,0.708-2.179,0.387c-0.446-0.229-0.742-1.037-0.619-1.548
				c0.132-0.558,0.432-1.168,0.972-1.479c0.396-0.237,1.097-0.299,1.724-0.033c0.678,0.285,1.382,1.027,1.5,1.512
				c0.101,0.402-0.078,1.127-0.344,1.503c-0.44,0.624-1.512,0.928-2.092,0.979C21.71,11.849,20.441,11.287,20.136,10.922z
				 M20.59,7.261c0.037,0.009,0.115,0.108,0.115,0.108c-0.796-0.229-1.764,0.526-2.079,1.146c-0.477,0.938-0.488,1.97-0.032,3.066
				c0.847,1.957,3.049,2.993,4.454,2.612c0,0-0.211,0.08-0.244,0.086c-1.203,0.211-2.325-0.281-3.282-1.17
				c-0.454-0.438-0.824-0.95-1.053-1.477c-0.471-1.135-0.457-2.206,0.038-3.18C18.843,7.793,19.733,7.04,20.59,7.261z"/>
		</g>
	</g>
	<path fill-rule="evenodd" clip-rule="evenodd" d="M5.306,6.499C4.739,6.79,4.415,7.075,4.113,7.546
		C3.679,8.201,3.515,8.8,3.598,9.43c0.098,0.663,0.188,1.431,0.468,1.951c0.021,0.038,0.042,0.077,0.064,0.112
		c-0.022-0.035-0.044-0.073-0.064-0.112c-0.303-0.526-0.495-1.221-0.6-1.932C3.378,8.783,3.55,8.155,4.002,7.473
		C4.317,6.98,4.655,6.685,5.243,6.381c0.493-0.266,2.369-0.817,3.27-1.066C8.356,5.226,4.007,2.821,1.225,6.913
		c0,0-1.346,2.076-0.629,3.219c0,0-0.003,0.001-0.009,0.006c0.361,0.678,0.982,1.243,1.456,1.497L1.98,11.753
		c-0.498-0.267-1.125-0.831-1.497-1.521c-0.169,0.179-0.474,0.616-0.481,1.487c-0.009,1.212-0.078,2.342,2.08,3.525v0.001
		c0.433,0.193,0.945,0.411,1.141,0.469c0.42,0.122,1.041,0.168,1.439,0.103c0.3-0.045,1.332-0.416,2.242-0.745
		c0.816-0.294,1.589-0.571,1.844-0.622c0,0-0.985,0.456-1.797,0.748c-0.962,0.347-1.954,0.705-2.267,0.752
		c-0.417,0.065-1.059,0.02-1.497-0.108c-0.186-0.054-0.653-0.254-1.075-0.439c0.072,0.409,0.374,1.501,1.522,1.774
		c1.422,0.339,3.027,0.173,4.436-1.056c1.408-1.228,2.142-0.61,2.806-0.696c0.635-0.082,1.639-0.781,1.745-2.886
		c0.107-2.104,0.336-3.821-1.619-5.159c0,0-0.882-0.38-1.123-1.167c-0.17-0.55-0.709-0.764-1.056-0.847
		C8.129,5.551,5.854,6.203,5.306,6.499z M4.44,10.613c-0.316-0.332-0.465-0.722-0.428-1.128c0.044-0.492,0.474-1.05,1.094-1.427
		c0.574-0.348,1.171-0.449,1.596-0.272c0.576,0.228,1.011,0.76,1.08,1.325c0.057,0.461-0.135,0.875-0.537,1.161
		c-0.574,0.405-1.164,0.478-1.579,0.196c-0.235-0.157-0.392-0.391-0.43-0.643c-0.032-0.223,0.03-0.443,0.179-0.62
		c0.377-0.451,0.797-0.56,1.184-0.303c0.204,0.135,0.42,0.403,0.36,0.717c-0.02,0.151-0.122,0.296-0.257,0.361
		c-0.115,0.058-0.21-0.006-0.325-0.073c0.098,0.057,0.214-0.02,0.267-0.047C6.739,9.816,6.812,9.71,6.826,9.598
		c0.047-0.235-0.118-0.462-0.301-0.583c-0.413-0.274-0.775,0-1.008,0.277C5.395,9.44,5.342,9.62,5.369,9.807
		c0.031,0.214,0.166,0.417,0.371,0.552c0.545,0.37,1.23-0.054,1.429-0.193C7.528,9.907,7.701,9.539,7.65,9.128
		C7.587,8.609,7.186,8.12,6.652,7.91C6.266,7.748,5.714,7.848,5.175,8.173C4.59,8.526,4.187,9.046,4.146,9.497
		c-0.034,0.367,0.101,0.722,0.39,1.023c0.5,0.521,1.314,0.763,1.86,0.734c0.843-0.051,2.097-0.524,2.638-1.285
		C9.02,9.991,9.059,10.051,9.042,10.07c-0.587,0.762-1.786,1.268-2.639,1.318C5.828,11.419,4.968,11.162,4.44,10.613z M2.755,12.415
		c-0.614-0.335-0.608-1.06-0.534-1.651c0.102-0.824,0.493-1.452,0.901-2.009l0.107,0.079c-0.397,0.542-0.778,1.152-0.877,1.945
		c-0.069,0.551-0.078,1.223,0.468,1.52c0.294,0.167,1.326,0.708,2.292,0.713c0.93,0.006,2.532-0.297,3.06-0.578l0.063,0.117
		c-0.543,0.288-2.178,0.599-3.123,0.595C4.115,13.141,3.056,12.586,2.755,12.415z M9.854,8.229c0.635,0.884,0.809,1.93,0.518,3.106
		c-0.145,0.549-0.429,1.103-0.809,1.595c-0.803,1.006-1.827,1.646-3.037,1.607c-0.035,0-0.252-0.048-0.252-0.048
		c1.433,0.174,3.435-1.151,3.969-3.188c0.28-1.137,0.113-2.145-0.497-2.995C9.344,7.745,8.281,7.144,7.536,7.479
		c0,0,0.06-0.107,0.096-0.123C8.438,7.02,9.425,7.633,9.854,8.229z"/>
	<path opacity="0.7" fill-rule="evenodd" clip-rule="evenodd" fill="#FFFFFF" d="M20.365,5.564c0,0-0.792-5.896-6.604-5.55
		c0,0-2.85,0.231-3.389,1.693c0,0-0.754-0.267-1.87,0.581C7.385,3.135,6.128,3.641,6.744,6.682c0,0-1.372,1.236-0.68,2.776
		c0.693,1.541,1.978,2.892,4.095,3.315c2.118,0.424,2.07,1.531,2.616,2.077c0.523,0.523,1.87,0.948,3.873-0.438
		c2-1.384,3.734-2.386,3.58-5.119c0,0-0.273-1.075,0.275-1.853C21.085,6.622,20.365,5.564,20.365,5.564z"/>
	<g>
		<g>
			<path fill-rule="evenodd" clip-rule="evenodd" d="M10.184,4.552c0-0.007-0.002-0.013-0.003-0.021
				c-0.045,0.057-0.089,0.117-0.125,0.179c0.005,0.031,0.009,0.062,0.014,0.091L10.184,4.552z"/>
			<path fill-rule="evenodd" clip-rule="evenodd" d="M20.627,6.094c-0.656-0.505-2.858-2.128-3.516-2.422
				c-0.667-0.312-1.154-0.408-1.798-0.353c-0.908,0.064-1.57,0.336-2.09,0.856c-0.537,0.557-1.176,1.182-1.456,1.805
				c0.269-0.65,0.77-1.314,1.345-1.913c0.55-0.549,1.244-0.834,2.188-0.901c0.672-0.059,1.183,0.041,1.875,0.366
				c0.591,0.264,2.42,1.592,3.282,2.239c-0.03-0.204-0.896-5.883-6.604-5.542c0,0-2.849,0.23-3.388,1.693
				c0,0-0.005-0.002-0.013-0.003c-0.362,0.799-0.37,1.993-0.272,2.611c0.227-0.277,0.549-0.498,0.852-0.677
				c0.826-0.487,1.677-0.571,2.474-0.589l0.004,0.152c-0.775,0.019-1.603,0.101-2.399,0.568c-0.552,0.327-1.173,0.792-1.062,1.5
				c0.055,0.387,0.289,1.715,0.964,2.603c0.651,0.854,2.058,2.107,2.688,2.393l-0.065,0.141c-0.646-0.294-2.083-1.57-2.744-2.44
				c-0.699-0.916-0.938-2.276-0.995-2.671c-0.048-0.31,0.021-0.571,0.159-0.801C9.96,4.03,9.942,2.682,10.293,1.892
				c-0.282-0.03-0.896,0.003-1.698,0.611C7.479,3.351,6.223,3.856,6.837,6.896v0.001c0.129,0.536,0.288,1.152,0.372,1.37
				c0.185,0.471,0.581,1.069,0.92,1.391c0.253,0.241,1.321,0.924,2.263,1.525c0.845,0.539,1.643,1.05,1.869,1.247
				c0,0-1.111-0.582-1.953-1.117c-0.994-0.636-2.021-1.293-2.284-1.545C7.67,9.435,7.257,8.813,7.065,8.323
				C6.984,8.114,6.837,7.546,6.71,7.027C6.387,7.383,5.599,8.43,6.159,9.673c0.693,1.54,1.977,2.892,4.093,3.314
				c2.118,0.425,2.07,1.531,2.618,2.077c0.521,0.523,1.868,0.95,3.871-0.438c2.002-1.385,3.734-2.387,3.58-5.119
				c0,0-0.273-1.075,0.277-1.853C20.982,7.114,20.797,6.469,20.627,6.094z M13.146,8.514c-0.435-0.507-1.073-1.612-0.941-2.481
				c0.078-0.524,0.502-1.268,0.902-1.52c0.48-0.306,1.643-0.359,2.423-0.057c0.725,0.28,1.251,0.89,1.389,1.402
				c0.198,0.688-0.037,1.433-0.369,2.001c-0.303,0.519-1.184,0.954-1.73,0.787c-0.775-0.239-1.52-1.269-1.48-2.056
				c0.015-0.327,0.481-1.155,1.403-1.021c0.674,0.1,1.044,0.447,1.08,0.982c0.021,0.28-0.071,0.668-0.401,0.833
				c-0.153,0.09-0.355,0.099-0.512,0.022c-0.134-0.066-0.143-0.198-0.162-0.352c0.017,0.129,0.17,0.184,0.229,0.213
				c0.109,0.055,0.26,0.045,0.372-0.02c0.247-0.124,0.339-0.435,0.321-0.687c-0.039-0.573-0.548-0.713-0.965-0.728
				c-0.224-0.009-0.425,0.07-0.576,0.227c-0.174,0.18-0.263,0.445-0.243,0.729c0.046,0.76,0.744,0.908,1.01,0.99
				c0.49,0.15,0.814-0.028,1.153-0.364c0.431-0.425,0.501-0.75,0.462-1.249c-0.039-0.501-0.345-1.172-1.022-1.435
				c-0.736-0.286-1.497-0.289-1.938-0.009c-0.359,0.228-0.61,0.705-0.73,1.173c-0.262,1.016,0.262,1.808,0.672,2.289
				c0.643,0.733,1.995,1.388,3.074,1.347c-0.03,0.002-0.207,0.151-0.746,0.21C15.28,9.8,13.792,9.256,13.146,8.514z M19.102,8.995
				c-0.361,1.202-1.195,2.1-2.478,2.665c-0.604,0.255-1.312,0.384-2.029,0.384c-1.488-0.025-2.796-0.513-3.616-1.646
				c-0.022-0.032-0.132-0.266-0.132-0.266c0.852,1.434,3.477,2.332,5.716,1.386c1.239-0.544,2.043-1.408,2.393-2.566
				c0.229-0.765,0.031-2.161-0.801-2.606c0,0,0.141-0.021,0.18,0.001C19.211,6.847,19.347,8.181,19.102,8.995z"/>
		</g>
		<g>
			<path opacity="0.6" d="M10.184,4.552c0-0.007-0.002-0.013-0.003-0.021c-0.045,0.057-0.089,0.117-0.125,0.179
				c0.005,0.031,0.009,0.062,0.014,0.091L10.184,4.552z"/>
			<path opacity="0.6" d="M20.627,6.094c-0.656-0.505-2.858-2.128-3.516-2.422c-0.667-0.312-1.154-0.408-1.798-0.353
				c-0.908,0.064-1.57,0.336-2.09,0.856c-0.537,0.557-1.176,1.182-1.456,1.805c0.269-0.65,0.77-1.314,1.345-1.913
				c0.55-0.549,1.244-0.834,2.188-0.901c0.672-0.059,1.183,0.041,1.875,0.366c0.591,0.264,2.42,1.592,3.282,2.239
				c-0.03-0.204-0.896-5.883-6.604-5.542c0,0-2.849,0.23-3.388,1.693c0,0-0.005-0.002-0.013-0.003
				c-0.362,0.799-0.37,1.993-0.272,2.611c0.227-0.277,0.549-0.498,0.852-0.677c0.826-0.487,1.677-0.571,2.474-0.589l0.004,0.152
				c-0.775,0.019-1.603,0.101-2.399,0.568c-0.552,0.327-1.173,0.792-1.062,1.5c0.055,0.387,0.289,1.715,0.964,2.603
				c0.651,0.854,2.058,2.107,2.688,2.393l-0.065,0.141c-0.646-0.294-2.083-1.57-2.744-2.44c-0.699-0.916-0.938-2.276-0.995-2.671
				c-0.048-0.31,0.021-0.571,0.159-0.801C9.96,4.03,9.942,2.682,10.293,1.892c-0.282-0.03-0.896,0.003-1.698,0.611
				C7.479,3.351,6.223,3.856,6.837,6.896v0.001c0.129,0.536,0.288,1.152,0.372,1.37c0.185,0.471,0.581,1.069,0.92,1.391
				c0.253,0.241,1.321,0.924,2.263,1.525c0.845,0.539,1.643,1.05,1.869,1.247c0,0-1.111-0.582-1.953-1.117
				c-0.994-0.636-2.021-1.293-2.284-1.545C7.67,9.435,7.257,8.813,7.065,8.323C6.984,8.114,6.837,7.546,6.71,7.027
				C6.387,7.383,5.599,8.43,6.159,9.673c0.693,1.54,1.977,2.892,4.093,3.314c2.118,0.425,2.07,1.531,2.618,2.077
				c0.521,0.523,1.868,0.95,3.871-0.438c2.002-1.385,3.734-2.387,3.58-5.119c0,0-0.273-1.075,0.277-1.853
				C20.982,7.114,20.797,6.469,20.627,6.094z M13.146,8.514c-0.435-0.507-1.073-1.612-0.941-2.481
				c0.078-0.524,0.502-1.268,0.902-1.52c0.48-0.306,1.643-0.359,2.423-0.057c0.725,0.28,1.251,0.89,1.389,1.402
				c0.198,0.688-0.037,1.433-0.369,2.001c-0.303,0.519-1.184,0.954-1.73,0.787c-0.775-0.239-1.52-1.269-1.48-2.056
				c0.015-0.327,0.481-1.155,1.403-1.021c0.674,0.1,1.044,0.447,1.08,0.982c0.021,0.28-0.071,0.668-0.401,0.833
				c-0.153,0.09-0.355,0.099-0.512,0.022c-0.134-0.066-0.143-0.198-0.162-0.352c0.017,0.129,0.17,0.184,0.229,0.213
				c0.109,0.055,0.26,0.045,0.372-0.02c0.247-0.124,0.339-0.435,0.321-0.687c-0.039-0.573-0.548-0.713-0.965-0.728
				c-0.224-0.009-0.425,0.07-0.576,0.227c-0.174,0.18-0.263,0.445-0.243,0.729c0.046,0.76,0.744,0.908,1.01,0.99
				c0.49,0.15,0.814-0.028,1.153-0.364c0.431-0.425,0.501-0.75,0.462-1.249c-0.039-0.501-0.345-1.172-1.022-1.435
				c-0.736-0.286-1.497-0.289-1.938-0.009c-0.359,0.228-0.61,0.705-0.73,1.173c-0.262,1.016,0.262,1.808,0.672,2.289
				c0.643,0.733,1.995,1.388,3.074,1.347c-0.03,0.002-0.207,0.151-0.746,0.21C15.28,9.8,13.792,9.256,13.146,8.514z M19.102,8.995
				c-0.361,1.202-1.195,2.1-2.478,2.665c-0.604,0.255-1.312,0.384-2.029,0.384c-1.488-0.025-2.796-0.513-3.616-1.646
				c-0.022-0.032-0.132-0.266-0.132-0.266c0.852,1.434,3.477,2.332,5.716,1.386c1.239-0.544,2.043-1.408,2.393-2.566
				c0.229-0.765,0.031-2.161-0.801-2.606c0,0,0.141-0.021,0.18,0.001C19.211,6.847,19.347,8.181,19.102,8.995z"/>
		</g>
	</g>
</g>
</svg>
