<?xml version="1.0" encoding="utf-8"?>
<!-- Generator: Adobe Illustrator 16.0.4, SVG Export Plug-In . SVG Version: 6.00 Build 0)  -->
<!DOCTYPE svg PUBLIC "-//W3C//DTD SVG 1.1//EN" "http://www.w3.org/Graphics/SVG/1.1/DTD/svg11.dtd">
<svg version="1.1" id="Layer_1" xmlns="http://www.w3.org/2000/svg" xmlns:xlink="http://www.w3.org/1999/xlink" x="0px" y="0px"
	 width="28.833px" height="18.145px" viewBox="0 0 28.833 18.145" enable-background="new 0 0 28.833 18.145" xml:space="preserve">
<path fill="#0071BC" d="M28.098,1.458c-0.729-1.023-1.756-1.622-3.42-1.418c-2.21,0.27-4.03,1.465-5.542,3.056
	c-0.841,0.882-4.004,4.879-4.798,6.157c-0.794-1.278-4.002-5.275-4.842-6.157C7.982,1.505,6.164,0.31,3.954,0.04
	C2.29-0.164,1.262,0.435,0.533,1.458C-0.195,2.48-0.116,3.531,0.401,4.737C1.118,6.41,2.323,7.772,3.905,8.556
	c2.271,1.123,4.672,1.983,7.114,2.992L5.03,14.85l1.879,1.076l0.045,2.082l7.479-5.835l7.288,5.835l0.021-2.082l1.869-1.076
	l-5.995-3.302c2.442-1.009,4.84-1.869,7.112-2.992c1.582-0.783,2.784-2.146,3.502-3.818C28.748,3.531,28.827,2.48,28.098,1.458z
	 M2.443,6.801C1.791,6.182,1.333,5.225,1.09,4.339C0.75,3.1,1.479,2.15,2.487,1.484C3.539,0.79,4.75,0.758,5.655,1.548
	c2.274,1.984,5.569,6.825,6.073,7.65C8.067,9.939,4.995,9.221,2.443,6.801z M14.349,9.27c-0.002-0.003-0.004-0.006-0.005-0.009
	c0.008-0.004,0.018-0.007,0.018-0.01C14.357,9.257,14.353,9.265,14.349,9.27z M27.541,4.339c-0.244,0.886-0.701,1.843-1.354,2.462
	c-2.551,2.42-5.625,3.139-9.287,2.397c0.505-0.825,3.8-5.666,6.074-7.65c0.907-0.79,2.117-0.758,3.169-0.063
	C27.151,2.15,27.881,3.1,27.541,4.339z"/>
</svg>
