<?xml version="1.0" encoding="utf-8"?>
<!-- Generator: Adobe Illustrator 16.0.4, SVG Export Plug-In . SVG Version: 6.00 Build 0)  -->
<!DOCTYPE svg PUBLIC "-//W3C//DTD SVG 1.1//EN" "http://www.w3.org/Graphics/SVG/1.1/DTD/svg11.dtd">
<svg version="1.1" id="Layer_1" xmlns="http://www.w3.org/2000/svg" xmlns:xlink="http://www.w3.org/1999/xlink" x="0px" y="0px"
	 width="32px" height="23.756px" viewBox="0 0 32 23.756" enable-background="new 0 0 32 23.756" xml:space="preserve">
<g>
	<path d="M8.3,13.644c0,0-4.71-0.544-5.016,0.322c-0.306,0.867,1.496,1.718,1.496,2.381s0.306,1.224,1.275,1.632
		c0.969,0.408,0.867,1.53,0.867,1.53s0.051,0.918,1.07,1.021c1.021,0.102,1.786,0.714,2.193,1.53
		c0.408,0.816,1.378,1.224,1.633,0.306s1.785-8.978,1.785-8.978L8.3,13.644z"/>
	<path d="M13.962,13.763c0,0-10.457-14.81-13.263-12.872c0,0-0.765,0.919,0.307,2.092s2.04,2.193,1.428,2.397
		S0.853,5.94,2.332,7.318c1.479,1.377,1.785,2.244,1.887,2.754c0.103,0.511-0.051,1.378,1.122,2.193
		c1.174,0.816,7.754,4.132,7.754,4.132L13.962,13.763z"/>
	<path d="M15.594,14.51c0,0-3.01,6.428-2.958,6.632c0.051,0.204-0.562,2.04,1.377,0.204c1.938-1.837,8.416-7.601,8.416-7.754
		c0-0.152,0.307-0.867-1.683-0.102c-1.989,0.765,1.274-1.429,1.274-1.429s5.561-5.05,5.561-6.631s2.428-3.247,3.474-4.096
		c0.489-0.396,0.438-1.455-0.821-0.546C28.271,2.206,17.583,12.011,15.594,14.51z"/>
	<ellipse transform="matrix(0.9499 0.3127 -0.3127 0.9499 6.2797 -3.3101)" cx="13.46" cy="17.924" rx="1.246" ry="4.659"/>
</g>
</svg>
