<?xml version="1.0" encoding="utf-8"?>
<!-- Generator: Adobe Illustrator 16.0.4, SVG Export Plug-In . SVG Version: 6.00 Build 0)  -->
<!DOCTYPE svg PUBLIC "-//W3C//DTD SVG 1.1//EN" "http://www.w3.org/Graphics/SVG/1.1/DTD/svg11.dtd">
<svg version="1.1" id="Layer_1" xmlns="http://www.w3.org/2000/svg" xmlns:xlink="http://www.w3.org/1999/xlink" x="0px" y="0px"
	 width="32px" height="23.756px" viewBox="0 0 32 23.756" enable-background="new 0 0 32 23.756" xml:space="preserve">
<g>
	<path fill="#0071BC" d="M8.3,13.644c0,0-4.71-0.544-5.016,0.322c-0.306,0.867,1.496,1.718,1.496,2.381s0.306,1.224,1.275,1.632
		c0.969,0.408,0.867,1.53,0.867,1.53s0.051,0.918,1.07,1.021c1.021,0.102,1.786,0.714,2.193,1.53
		c0.408,0.816,1.378,1.224,1.633,0.306s1.785-8.978,1.785-8.978L8.3,13.644z"/>
	<path fill="#0071BC" d="M13.962,13.763c0,0-10.457-14.81-13.263-12.872c0,0-0.765,0.919,0.307,2.092s2.04,2.193,1.428,2.397
		S0.853,5.94,2.332,7.318c1.479,1.377,1.785,2.244,1.887,2.754c0.103,0.511-0.051,1.378,1.122,2.193
		c1.174,0.816,7.754,4.132,7.754,4.132L13.962,13.763z"/>
	<path fill="#0071BC" d="M15.594,14.51c0,0-3.01,6.428-2.958,6.632c0.051,0.204-0.562,2.04,1.377,0.204
		c1.938-1.837,8.416-7.601,8.416-7.754c0-0.152,0.307-0.867-1.683-0.102c-1.989,0.765,1.274-1.429,1.274-1.429
		s5.561-5.05,5.561-6.631s2.428-3.247,3.474-4.096c0.489-0.396,0.438-1.455-0.821-0.546C28.271,2.206,17.583,12.011,15.594,14.51z"
		/>
	
		<ellipse transform="matrix(0.9499 0.3127 -0.3127 0.9499 6.2797 -3.3101)" fill="#0071BC" cx="13.46" cy="17.924" rx="1.246" ry="4.659"/>
</g>
<g>
	<path fill-rule="evenodd" clip-rule="evenodd" d="M79.373,10.817c0,0,0.229-7.687,2.52-10.322c1.76-2.024,1.865,2.818,1.865,2.818
		s0,0.563,0.78,0.824c0.78,0.26,1.04,0.78,0.693,2.255S85.015,8.3,85.362,8.344c0.347,0.043,0.954,0.997-1.301,2.991
		c-2.256,1.995-2.025,1.844-2.025,1.844L79.373,10.817z"/>
	<path d="M82.036,13.179c0,0,4.542-2.82,6.146-2.286c0,0,0.148,0.06,0.356,0.387c0.207,0.326,0.029,0.504,0.475,0.742
		c0.445,0.237,0.268,1.009,0.178,1.098c-0.089,0.09-0.386,0.742-0.207,0.98c0.178,0.237,0.178,0.86-0.148,1.217
		c-0.327,0.356-0.149,0.979-0.09,1.306c0.06,0.327-0.415,0.654-0.741,0.743c-0.327,0.089-1.723,0.119-1.723,0.119L82.036,13.179z"/>
	<path d="M78.444,10.953c0,0-7.838-7.362-8.135-7.065c-0.296,0.297,0.03,0.579,0.03,0.579l15.496,14.606
		c0,0,0.534,0.401,0.334-0.178S78.444,10.953,78.444,10.953z"/>
	<ellipse transform="matrix(0.68 -0.7332 0.7332 0.68 15.8393 64.9931)" cx="82.374" cy="14.352" rx="1.191" ry="5.077"/>
</g>
<g>
	<path d="M46.974,10.114c0,0,11.719-10.943,11.797-6.831c0,0-2.328,3.028-2.639,4.58c-0.311,1.553-1.63,1.396-2.406,1.708
		c-0.776,0.31-1.553,1.786-1.631,2.017c-0.076,0.233-2.793,0.854-4.812,1.242c-2.018,0.388-1.553,0.079-1.553,0.079L46.974,10.114z"
		/>
	<path d="M44.8,10.114c0,0-9.235-12.729-9.391-9.702c-0.156,3.028,0.388,3.338-0.156,4.502c-0.543,1.165-0.077,1.474,0.544,2.407
		c0.62,0.931,0.698,1.008,0.698,1.939c0,0.933,3.726,3.571,6.676,3.493C46.119,12.676,44.8,10.114,44.8,10.114z"/>
	<path d="M44.102,12.133c0,0-8.383-0.776-8.537,0.931c-0.155,1.707,0,1.397,0.931,1.629c0.931,0.233,0.155,1.397,0.155,1.397
		s0.078,0.931,0.931,0.7c0.854-0.233,0.388,0.776,0.388,1.008c0,0.232,0.389,0.775,1.476,0.933c1.086,0.154,0.932,1.086,0.932,1.086
		s0.698,1.242,1.862,0.154C43.402,18.885,44.102,12.133,44.102,12.133z"/>
	<path d="M45.809,12.946c0,0,3.842,0.679,4.852,2.388c1.009,1.708-1.416,1.154-1.416,1.154s-0.708,0.538-0.865,1.78
		c-0.154,1.241-1.943,0.938-1.943,0.938S45.654,19,45.654,21h-1.397c0,0-0.698,0.805-1.164,0.495
		C42.626,21.185,44.179,14.693,45.809,12.946z"/>
	<ellipse transform="matrix(0.9452 0.3265 -0.3265 0.9452 7.3332 -13.6558)" cx="44.351" cy="15.02" rx="1.079" ry="5.511"/>
</g>
<path fill-rule="evenodd" clip-rule="evenodd" d="M28.098,30.813c-0.729-1.023-1.756-1.622-3.42-1.418
	c-2.21,0.27-4.03,1.465-5.542,3.056c-0.841,0.882-4.004,4.879-4.798,6.157c-0.794-1.278-4.002-5.275-4.842-6.157
	c-1.514-1.591-3.333-2.786-5.542-3.056c-1.665-0.204-2.692,0.395-3.421,1.418c-0.728,1.022-0.648,2.073-0.132,3.279
	c0.717,1.673,1.922,3.035,3.504,3.818c2.271,1.123,4.672,1.983,7.114,2.992L5.03,44.205l1.879,1.076l0.045,2.082l7.479-5.835
	l7.288,5.835l0.021-2.082l1.869-1.076l-5.995-3.302c2.442-1.009,4.84-1.869,7.112-2.992c1.582-0.783,2.784-2.146,3.502-3.818
	C28.748,32.887,28.827,31.836,28.098,30.813z M2.443,36.156c-0.652-0.619-1.11-1.576-1.354-2.462
	c-0.34-1.239,0.39-2.188,1.397-2.854c1.052-0.694,2.262-0.727,3.168,0.063c2.274,1.984,5.569,6.825,6.073,7.65
	C8.067,39.295,4.995,38.576,2.443,36.156z M14.349,38.625c-0.002-0.003-0.004-0.006-0.005-0.009c0.008-0.004,0.018-0.007,0.018-0.01
	C14.357,38.612,14.353,38.62,14.349,38.625z M27.541,33.694c-0.244,0.886-0.701,1.843-1.354,2.462
	c-2.551,2.42-5.625,3.139-9.287,2.397c0.505-0.825,3.8-5.666,6.074-7.65c0.907-0.79,2.117-0.758,3.169-0.063
	C27.151,31.506,27.881,32.455,27.541,33.694z"/>
<path opacity="0.7" fill-rule="evenodd" clip-rule="evenodd" fill="#FFFFFF" d="M19.188,61.365c0,0-1.048-7.805-8.743-7.346
	c0,0-3.771,0.306-4.485,2.242c0,0-0.998-0.354-2.476,0.768c-1.478,1.12-3.142,1.79-2.327,5.816c0,0-1.816,1.637-0.898,3.675
	c0.917,2.038,2.617,3.828,5.42,4.389c2.803,0.561,2.74,2.025,3.463,2.749c0.691,0.692,2.476,1.256,5.125-0.579
	c2.65-1.834,4.944-3.159,4.739-6.777c0,0-0.361-1.424,0.367-2.452C20.142,62.766,19.188,61.365,19.188,61.365z"/>
<g>
	<g>
		<path fill-rule="evenodd" clip-rule="evenodd" fill="#C1272D" d="M5.711,60.024c-0.001-0.008-0.002-0.018-0.004-0.025
			c-0.062,0.075-0.117,0.153-0.166,0.235c0.005,0.042,0.012,0.084,0.018,0.121L5.711,60.024z"/>
		<path fill-rule="evenodd" clip-rule="evenodd" fill="#C1272D" d="M19.537,62.066c-0.871-0.67-3.786-2.817-4.655-3.206
			c-0.883-0.414-1.529-0.541-2.382-0.468c-1.199,0.086-2.077,0.446-2.766,1.135c-0.71,0.737-1.556,1.564-1.927,2.388
			c0.355-0.859,1.018-1.738,1.781-2.53c0.727-0.727,1.646-1.105,2.896-1.194c0.891-0.077,1.565,0.055,2.482,0.484
			c0.783,0.351,3.202,2.108,4.345,2.966c-0.039-0.271-1.186-7.788-8.742-7.337c0,0-3.771,0.306-4.485,2.242
			c0,0-0.006-0.002-0.016-0.005C5.587,57.6,5.577,59.18,5.708,59.999c0.3-0.369,0.725-0.66,1.127-0.896
			c1.093-0.645,2.22-0.756,3.274-0.781l0.005,0.204c-1.026,0.023-2.123,0.131-3.176,0.753c-0.732,0.431-1.554,1.047-1.406,1.984
			c0.073,0.512,0.381,2.27,1.276,3.444c0.862,1.131,2.723,2.789,3.557,3.168l-0.085,0.186c-0.854-0.389-2.757-2.079-3.634-3.23
			c-0.925-1.213-1.241-3.014-1.315-3.536c-0.065-0.408,0.028-0.757,0.209-1.06c-0.127-0.899-0.151-2.685,0.314-3.731
			c-0.375-0.039-1.186,0.005-2.248,0.811c-1.478,1.121-3.142,1.79-2.327,5.816l-0.001,0.001c0.17,0.708,0.38,1.525,0.493,1.812
			c0.244,0.624,0.768,1.415,1.217,1.84c0.334,0.321,1.749,1.225,2.996,2.021c1.119,0.716,2.175,1.391,2.474,1.652
			c0,0-1.472-0.771-2.584-1.48c-1.316-0.841-2.677-1.711-3.025-2.044c-0.469-0.443-1.014-1.266-1.267-1.914
			c-0.107-0.277-0.304-1.029-0.471-1.716c-0.428,0.472-1.471,1.855-0.73,3.503C1.3,68.843,3,70.633,5.803,71.193
			c2.803,0.561,2.74,2.026,3.463,2.749c0.692,0.692,2.476,1.256,5.126-0.579c2.65-1.834,4.943-3.159,4.739-6.777
			c0,0-0.361-1.424,0.367-2.452C20.006,63.417,19.762,62.563,19.537,62.066z M9.632,65.269c-0.575-0.671-1.421-2.133-1.248-3.283
			c0.104-0.694,0.667-1.677,1.196-2.012c0.635-0.405,2.174-0.477,3.208-0.076c0.958,0.372,1.656,1.179,1.838,1.857
			c0.262,0.91-0.051,1.896-0.489,2.647c-0.4,0.688-1.566,1.264-2.291,1.044c-1.025-0.318-2.011-1.68-1.959-2.724
			c0.021-0.433,0.636-1.526,1.857-1.349c0.893,0.13,1.382,0.591,1.431,1.3c0.026,0.372-0.097,0.885-0.532,1.102
			c-0.202,0.119-0.472,0.132-0.677,0.03c-0.179-0.088-0.188-0.262-0.215-0.465c0.021,0.172,0.224,0.242,0.305,0.282
			c0.145,0.072,0.342,0.061,0.49-0.026c0.329-0.165,0.449-0.574,0.426-0.909c-0.052-0.758-0.724-0.941-1.277-0.963
			c-0.294-0.012-0.562,0.093-0.762,0.3c-0.23,0.238-0.348,0.591-0.322,0.966c0.061,1.005,0.984,1.201,1.337,1.311
			c0.649,0.197,1.077-0.039,1.527-0.483c0.569-0.561,0.662-0.993,0.611-1.654c-0.051-0.662-0.457-1.549-1.354-1.897
			c-0.976-0.379-1.981-0.383-2.564-0.011c-0.478,0.302-0.809,0.932-0.969,1.552c-0.347,1.345,0.347,2.394,0.892,3.029
			c0.848,0.973,2.64,1.838,4.067,1.783c-0.039,0.002-0.274,0.201-0.987,0.278C12.457,66.974,10.488,66.251,9.632,65.269z
			 M17.518,65.907c-0.48,1.593-1.584,2.779-3.282,3.527c-0.799,0.337-1.735,0.508-2.686,0.509c-1.97-0.034-3.7-0.679-4.786-2.181
			c-0.029-0.042-0.175-0.351-0.175-0.351c1.127,1.898,4.603,3.087,7.567,1.835c1.639-0.722,2.705-1.866,3.167-3.398
			c0.305-1.013,0.042-2.86-1.061-3.45c0,0,0.188-0.027,0.239,0.002C17.662,63.062,17.841,64.829,17.518,65.907z"/>
	</g>
	<g>
		<path opacity="0.6" d="M5.711,60.024c-0.001-0.008-0.002-0.018-0.004-0.025c-0.062,0.075-0.117,0.153-0.166,0.235
			c0.005,0.042,0.012,0.084,0.018,0.121L5.711,60.024z"/>
		<path opacity="0.6" d="M19.537,62.066c-0.871-0.67-3.786-2.817-4.655-3.206c-0.883-0.414-1.529-0.541-2.382-0.468
			c-1.199,0.086-2.077,0.446-2.766,1.135c-0.71,0.737-1.556,1.564-1.927,2.388c0.355-0.859,1.018-1.738,1.781-2.53
			c0.727-0.727,1.646-1.105,2.896-1.194c0.891-0.077,1.565,0.055,2.482,0.484c0.783,0.351,3.202,2.108,4.345,2.966
			c-0.039-0.271-1.186-7.788-8.742-7.337c0,0-3.771,0.306-4.485,2.242c0,0-0.006-0.002-0.016-0.005
			C5.587,57.6,5.577,59.18,5.708,59.999c0.3-0.369,0.725-0.66,1.127-0.896c1.093-0.645,2.22-0.756,3.274-0.781l0.005,0.204
			c-1.026,0.023-2.123,0.131-3.176,0.753c-0.732,0.431-1.554,1.047-1.406,1.984c0.073,0.512,0.381,2.27,1.276,3.444
			c0.862,1.131,2.723,2.789,3.557,3.168l-0.085,0.186c-0.854-0.389-2.757-2.079-3.634-3.23c-0.925-1.213-1.241-3.014-1.315-3.536
			c-0.065-0.408,0.028-0.757,0.209-1.06c-0.127-0.899-0.151-2.685,0.314-3.731c-0.375-0.039-1.186,0.005-2.248,0.811
			c-1.478,1.121-3.142,1.79-2.327,5.816l-0.001,0.001c0.17,0.708,0.38,1.525,0.493,1.812c0.244,0.624,0.768,1.415,1.217,1.84
			c0.334,0.321,1.749,1.225,2.996,2.021c1.119,0.716,2.175,1.391,2.474,1.652c0,0-1.472-0.771-2.584-1.48
			c-1.316-0.841-2.677-1.711-3.025-2.044c-0.469-0.443-1.014-1.266-1.267-1.914c-0.107-0.277-0.304-1.029-0.471-1.716
			c-0.428,0.472-1.471,1.855-0.73,3.503C1.3,68.843,3,70.633,5.803,71.193c2.803,0.561,2.74,2.026,3.463,2.749
			c0.692,0.692,2.476,1.256,5.126-0.579c2.65-1.834,4.943-3.159,4.739-6.777c0,0-0.361-1.424,0.367-2.452
			C20.006,63.417,19.762,62.563,19.537,62.066z M9.632,65.269c-0.575-0.671-1.421-2.133-1.248-3.283
			c0.104-0.694,0.667-1.677,1.196-2.012c0.635-0.405,2.174-0.477,3.208-0.076c0.958,0.372,1.656,1.179,1.838,1.857
			c0.262,0.91-0.051,1.896-0.489,2.647c-0.4,0.688-1.566,1.264-2.291,1.044c-1.025-0.318-2.011-1.68-1.959-2.724
			c0.021-0.433,0.636-1.526,1.857-1.349c0.893,0.13,1.382,0.591,1.431,1.3c0.026,0.372-0.097,0.885-0.532,1.102
			c-0.202,0.119-0.472,0.132-0.677,0.03c-0.179-0.088-0.188-0.262-0.215-0.465c0.021,0.172,0.224,0.242,0.305,0.282
			c0.145,0.072,0.342,0.061,0.49-0.026c0.329-0.165,0.449-0.574,0.426-0.909c-0.052-0.758-0.724-0.941-1.277-0.963
			c-0.294-0.012-0.562,0.093-0.762,0.3c-0.23,0.238-0.348,0.591-0.322,0.966c0.061,1.005,0.984,1.201,1.337,1.311
			c0.649,0.197,1.077-0.039,1.527-0.483c0.569-0.561,0.662-0.993,0.611-1.654c-0.051-0.662-0.457-1.549-1.354-1.897
			c-0.976-0.379-1.981-0.383-2.564-0.011c-0.478,0.302-0.809,0.932-0.969,1.552c-0.347,1.345,0.347,2.394,0.892,3.029
			c0.848,0.973,2.64,1.838,4.067,1.783c-0.039,0.002-0.274,0.201-0.987,0.278C12.457,66.974,10.488,66.251,9.632,65.269z
			 M17.518,65.907c-0.48,1.593-1.584,2.779-3.282,3.527c-0.799,0.337-1.735,0.508-2.686,0.509c-1.97-0.034-3.7-0.679-4.786-2.181
			c-0.029-0.042-0.175-0.351-0.175-0.351c1.127,1.898,4.603,3.087,7.567,1.835c1.639-0.722,2.705-1.866,3.167-3.398
			c0.305-1.013,0.042-2.86-1.061-3.45c0,0,0.188-0.027,0.239,0.002C17.662,63.062,17.841,64.829,17.518,65.907z"/>
	</g>
</g>
<g>
	<g>
		<g>
			<path fill-rule="evenodd" clip-rule="evenodd" fill="#C1272D" d="M96.831,40.456c0.004-0.003,0.009-0.008,0.014-0.011
				c-0.005,0.063-0.014,0.126-0.027,0.188c-0.022,0.019-0.044,0.035-0.064,0.05L96.831,40.456z"/>
			<path fill-rule="evenodd" clip-rule="evenodd" fill="#C1272D" d="M88.367,36.057c-0.12,0.823-0.942,1.329-0.942,1.329
				c-1.746,1.62-1.251,3.303-0.82,5.391c0.432,2.087,1.542,2.642,2.188,2.633c0.675-0.01,1.312-0.733,2.908,0.292
				c1.596,1.024,3.224,0.959,4.591,0.416c1.104-0.438,1.236-1.574,1.247-1.994c-0.394,0.248-0.83,0.515-1.007,0.596
				c-0.417,0.19-1.053,0.328-1.478,0.322c-0.319-0.003-1.366-0.217-2.379-0.424c-0.854-0.176-1.91-0.489-1.91-0.489
				c0.262,0.014,1.075,0.182,1.936,0.357c0.96,0.197,2.046,0.42,2.354,0.421c0.408,0.006,1.03-0.126,1.432-0.311
				c0.184-0.084,0.64-0.375,1.072-0.631l0,0c2.158-1.532,1.722-2.613,1.525-3.825c-0.142-0.868-0.517-1.263-0.713-1.417
				c-0.253,0.709-1.081,1.545-1.551,1.91c-0.051,0.229-0.168,0.436-0.384,0.599c-0.273,0.213-1.245,0.92-2.241,1.068
				c-0.943,0.143-2.623,0.067-3.21-0.143l0.045-0.126c0.572,0.204,2.216,0.274,3.143,0.137c0.965-0.145,1.912-0.834,2.18-1.044
				c0.498-0.375,0.386-1.044,0.232-1.586c-0.221-0.778-0.696-1.333-1.176-1.817l0.095-0.095c0.493,0.498,0.98,1.069,1.21,1.876
				c0.084,0.297,0.156,0.632,0.131,0.943c0.437-0.328,1.15-1.08,1.402-1.803c-0.006-0.003-0.011-0.004-0.011-0.004
				c0.541-1.247-1.122-3.126-1.122-3.126c-3.409-3.69-7.381-0.66-7.523-0.549c0.938,0.118,2.895,0.4,3.429,0.595
				c0.635,0.218,1.017,0.467,1.408,0.912c0.557,0.618,0.823,1.22,0.84,1.897c0.005,0.728-0.077,1.447-0.3,2.018
				c0.198-0.56,0.17-1.341,0.167-2.016c-0.017-0.644-0.271-1.219-0.808-1.811c-0.375-0.426-0.74-0.665-1.351-0.875
				c-0.593-0.216-2.966-0.54-3.688-0.624C88.956,35.193,88.449,35.484,88.367,36.057z M90.136,40.277
				c-0.308-0.364-0.329-0.566-0.347-0.586c0.658,0.683,1.909,1.098,2.758,1.027c0.549-0.05,1.357-0.229,1.805-1.024
				c0.207-0.366,0.336-0.816,0.244-1.179c-0.109-0.446-0.592-0.906-1.231-1.175c-0.588-0.249-1.187-0.017-1.512,0.274
				c-0.325,0.29-0.479,0.537-0.462,1.063c0.014,0.419,0.111,0.726,0.51,0.932c0.22,0.11,0.752,0.442,1.237-0.005
				c0.184-0.165,0.287-0.387,0.285-0.605c-0.001-0.189-0.081-0.361-0.227-0.492c-0.275-0.244-0.681-0.467-1.05-0.132
				c-0.163,0.146-0.292,0.397-0.211,0.625c0.032,0.111,0.121,0.206,0.223,0.238c0.058,0.019,0.187,0.078,0.273,0.008
				c-0.104,0.084-0.189,0.16-0.313,0.122c-0.144-0.047-0.267-0.178-0.311-0.327c-0.108-0.304,0.066-0.604,0.247-0.767
				c0.347-0.312,0.791-0.306,1.277,0.043c0.665,0.479,0.462,1.28,0.274,1.494c-0.452,0.518-1.542,0.708-2.179,0.387
				c-0.446-0.229-0.742-1.037-0.619-1.548c0.132-0.558,0.432-1.168,0.972-1.479c0.396-0.237,1.097-0.299,1.724-0.033
				c0.678,0.285,1.382,1.027,1.5,1.512c0.101,0.402-0.078,1.127-0.344,1.503c-0.44,0.624-1.512,0.928-2.092,0.979
				C91.71,41.204,90.441,40.643,90.136,40.277z M90.59,36.616c0.037,0.009,0.115,0.108,0.115,0.108
				c-0.796-0.229-1.764,0.526-2.079,1.146c-0.477,0.938-0.488,1.97-0.032,3.066c0.847,1.957,3.049,2.993,4.454,2.612
				c0,0-0.211,0.08-0.244,0.086c-1.203,0.211-2.325-0.281-3.282-1.17c-0.454-0.438-0.824-0.95-1.053-1.477
				c-0.471-1.135-0.457-2.206,0.038-3.18C88.843,37.148,89.733,36.396,90.59,36.616z"/>
		</g>
		<g>
			<path opacity="0.6" d="M96.831,40.456c0.004-0.003,0.009-0.008,0.014-0.011c-0.005,0.063-0.014,0.126-0.027,0.188
				c-0.022,0.019-0.044,0.035-0.064,0.05L96.831,40.456z"/>
			<path opacity="0.6" d="M88.367,36.057c-0.12,0.823-0.942,1.329-0.942,1.329c-1.746,1.62-1.251,3.303-0.82,5.391
				c0.432,2.087,1.542,2.642,2.188,2.633c0.675-0.01,1.312-0.733,2.908,0.292c1.596,1.024,3.224,0.959,4.591,0.416
				c1.104-0.438,1.236-1.574,1.247-1.994c-0.394,0.248-0.83,0.515-1.007,0.596c-0.417,0.19-1.053,0.328-1.478,0.322
				c-0.319-0.003-1.366-0.217-2.379-0.424c-0.854-0.176-1.91-0.489-1.91-0.489c0.262,0.014,1.075,0.182,1.936,0.357
				c0.96,0.197,2.046,0.42,2.354,0.421c0.408,0.006,1.03-0.126,1.432-0.311c0.184-0.084,0.64-0.375,1.072-0.631l0,0
				c2.158-1.532,1.722-2.613,1.525-3.825c-0.142-0.868-0.517-1.263-0.713-1.417c-0.253,0.709-1.081,1.545-1.551,1.91
				c-0.051,0.229-0.168,0.436-0.384,0.599c-0.273,0.213-1.245,0.92-2.241,1.068c-0.943,0.143-2.623,0.067-3.21-0.143l0.045-0.126
				c0.572,0.204,2.216,0.274,3.143,0.137c0.965-0.145,1.912-0.834,2.18-1.044c0.498-0.375,0.386-1.044,0.232-1.586
				c-0.221-0.778-0.696-1.333-1.176-1.817l0.095-0.095c0.493,0.498,0.98,1.069,1.21,1.876c0.084,0.297,0.156,0.632,0.131,0.943
				c0.437-0.328,1.15-1.08,1.402-1.803c-0.006-0.003-0.011-0.004-0.011-0.004c0.541-1.247-1.122-3.126-1.122-3.126
				c-3.409-3.69-7.381-0.66-7.523-0.549c0.938,0.118,2.895,0.4,3.429,0.595c0.635,0.218,1.017,0.467,1.408,0.912
				c0.557,0.618,0.823,1.22,0.84,1.897c0.005,0.728-0.077,1.447-0.3,2.018c0.198-0.56,0.17-1.341,0.167-2.016
				c-0.017-0.644-0.271-1.219-0.808-1.811c-0.375-0.426-0.74-0.665-1.351-0.875c-0.593-0.216-2.966-0.54-3.688-0.624
				C88.956,35.193,88.449,35.484,88.367,36.057z M90.136,40.277c-0.308-0.364-0.329-0.566-0.347-0.586
				c0.658,0.683,1.909,1.098,2.758,1.027c0.549-0.05,1.357-0.229,1.805-1.024c0.207-0.366,0.336-0.816,0.244-1.179
				c-0.109-0.446-0.592-0.906-1.231-1.175c-0.588-0.249-1.187-0.017-1.512,0.274c-0.325,0.29-0.479,0.537-0.462,1.063
				c0.014,0.419,0.111,0.726,0.51,0.932c0.22,0.11,0.752,0.442,1.237-0.005c0.184-0.165,0.287-0.387,0.285-0.605
				c-0.001-0.189-0.081-0.361-0.227-0.492c-0.275-0.244-0.681-0.467-1.05-0.132c-0.163,0.146-0.292,0.397-0.211,0.625
				c0.032,0.111,0.121,0.206,0.223,0.238c0.058,0.019,0.187,0.078,0.273,0.008c-0.104,0.084-0.189,0.16-0.313,0.122
				c-0.144-0.047-0.267-0.178-0.311-0.327c-0.108-0.304,0.066-0.604,0.247-0.767c0.347-0.312,0.791-0.306,1.277,0.043
				c0.665,0.479,0.462,1.28,0.274,1.494c-0.452,0.518-1.542,0.708-2.179,0.387c-0.446-0.229-0.742-1.037-0.619-1.548
				c0.132-0.558,0.432-1.168,0.972-1.479c0.396-0.237,1.097-0.299,1.724-0.033c0.678,0.285,1.382,1.027,1.5,1.512
				c0.101,0.402-0.078,1.127-0.344,1.503c-0.44,0.624-1.512,0.928-2.092,0.979C91.71,41.204,90.441,40.643,90.136,40.277z
				 M90.59,36.616c0.037,0.009,0.115,0.108,0.115,0.108c-0.796-0.229-1.764,0.526-2.079,1.146c-0.477,0.938-0.488,1.97-0.032,3.066
				c0.847,1.957,3.049,2.993,4.454,2.612c0,0-0.211,0.08-0.244,0.086c-1.203,0.211-2.325-0.281-3.282-1.17
				c-0.454-0.438-0.824-0.95-1.053-1.477c-0.471-1.135-0.457-2.206,0.038-3.18C88.843,37.148,89.733,36.396,90.59,36.616z"/>
		</g>
	</g>
	<path fill-rule="evenodd" clip-rule="evenodd" fill="#C1272D" d="M75.306,35.854c-0.566,0.291-0.891,0.576-1.192,1.047
		c-0.435,0.655-0.599,1.254-0.516,1.884c0.098,0.663,0.188,1.431,0.468,1.951c0.021,0.038,0.042,0.077,0.064,0.112
		c-0.022-0.035-0.044-0.073-0.064-0.112c-0.303-0.526-0.495-1.221-0.6-1.932c-0.088-0.666,0.084-1.294,0.536-1.977
		c0.315-0.492,0.653-0.788,1.241-1.092c0.493-0.266,2.369-0.817,3.27-1.066c-0.156-0.089-4.506-2.493-7.288,1.599
		c0,0-1.346,2.076-0.629,3.219c0,0-0.003,0.001-0.009,0.006c0.361,0.678,0.982,1.243,1.456,1.497l-0.062,0.118
		c-0.498-0.267-1.125-0.831-1.497-1.521c-0.169,0.179-0.474,0.616-0.481,1.487c-0.009,1.212-0.078,2.342,2.08,3.525v0.001
		c0.433,0.193,0.945,0.411,1.141,0.469c0.42,0.122,1.041,0.168,1.439,0.103c0.3-0.045,1.332-0.416,2.242-0.745
		c0.816-0.294,1.589-0.571,1.844-0.622c0,0-0.985,0.456-1.797,0.748c-0.962,0.347-1.954,0.705-2.267,0.752
		c-0.417,0.065-1.059,0.02-1.497-0.108c-0.186-0.054-0.653-0.254-1.075-0.439c0.072,0.409,0.374,1.501,1.522,1.774
		c1.422,0.339,3.027,0.173,4.436-1.056c1.408-1.228,2.142-0.61,2.806-0.696c0.635-0.082,1.639-0.781,1.745-2.886
		c0.107-2.104,0.336-3.821-1.619-5.159c0,0-0.882-0.38-1.123-1.167c-0.17-0.55-0.709-0.764-1.056-0.847
		C78.129,34.906,75.854,35.559,75.306,35.854z M74.44,39.969c-0.316-0.332-0.465-0.722-0.428-1.128
		c0.044-0.492,0.474-1.05,1.094-1.427c0.574-0.348,1.171-0.449,1.596-0.272c0.576,0.228,1.011,0.76,1.08,1.325
		c0.057,0.461-0.135,0.875-0.537,1.161c-0.574,0.405-1.164,0.478-1.579,0.196c-0.235-0.157-0.392-0.391-0.43-0.643
		c-0.032-0.223,0.03-0.443,0.179-0.62c0.377-0.451,0.797-0.56,1.184-0.303c0.204,0.135,0.42,0.403,0.36,0.717
		c-0.02,0.151-0.122,0.296-0.257,0.361c-0.115,0.058-0.21-0.006-0.325-0.073c0.098,0.057,0.214-0.02,0.267-0.047
		c0.096-0.045,0.168-0.151,0.183-0.264c0.047-0.235-0.118-0.462-0.301-0.583c-0.413-0.274-0.775,0-1.008,0.277
		c-0.123,0.148-0.176,0.328-0.148,0.515c0.031,0.214,0.166,0.417,0.371,0.552c0.545,0.37,1.23-0.054,1.429-0.193
		c0.359-0.258,0.532-0.626,0.481-1.037c-0.063-0.519-0.465-1.008-0.998-1.218c-0.387-0.162-0.938-0.062-1.478,0.263
		c-0.585,0.354-0.988,0.873-1.028,1.324c-0.034,0.367,0.101,0.722,0.39,1.023c0.5,0.521,1.314,0.763,1.86,0.734
		c0.843-0.051,2.097-0.524,2.638-1.285c-0.015,0.021,0.024,0.081,0.008,0.101c-0.587,0.762-1.786,1.268-2.639,1.318
		C75.828,40.774,74.968,40.518,74.44,39.969z M72.755,41.771c-0.614-0.335-0.608-1.06-0.534-1.651
		c0.102-0.824,0.493-1.452,0.901-2.009l0.107,0.079c-0.397,0.542-0.778,1.152-0.877,1.945c-0.069,0.551-0.078,1.223,0.468,1.52
		c0.294,0.167,1.326,0.708,2.292,0.713c0.93,0.006,2.532-0.297,3.06-0.578l0.063,0.117c-0.543,0.288-2.178,0.599-3.123,0.595
		C74.115,42.496,73.056,41.941,72.755,41.771z M79.854,37.585c0.635,0.884,0.809,1.93,0.518,3.106
		c-0.145,0.549-0.429,1.103-0.809,1.595c-0.803,1.006-1.827,1.646-3.037,1.607c-0.035,0-0.252-0.048-0.252-0.048
		c1.433,0.174,3.435-1.151,3.969-3.188c0.28-1.137,0.113-2.145-0.497-2.995c-0.401-0.562-1.464-1.164-2.209-0.828
		c0,0,0.06-0.107,0.096-0.123C78.438,36.375,79.425,36.988,79.854,37.585z"/>
	<path opacity="0.7" fill-rule="evenodd" clip-rule="evenodd" fill="#FFFFFF" d="M90.365,34.92c0,0-0.792-5.896-6.604-5.55
		c0,0-2.85,0.231-3.389,1.693c0,0-0.754-0.267-1.87,0.581c-1.117,0.846-2.374,1.352-1.758,4.393c0,0-1.372,1.236-0.68,2.776
		c0.693,1.541,1.978,2.892,4.095,3.315c2.118,0.424,2.07,1.531,2.616,2.077c0.523,0.523,1.87,0.948,3.873-0.438
		c2-1.384,3.734-2.386,3.58-5.119c0,0-0.273-1.075,0.275-1.853C91.085,35.978,90.365,34.92,90.365,34.92z"/>
	<g>
		<g>
			<path fill-rule="evenodd" clip-rule="evenodd" fill="#C1272D" d="M80.184,33.907c0-0.007-0.002-0.013-0.003-0.021
				c-0.045,0.057-0.089,0.117-0.125,0.179c0.005,0.031,0.009,0.062,0.014,0.091L80.184,33.907z"/>
			<path fill-rule="evenodd" clip-rule="evenodd" fill="#C1272D" d="M90.627,35.449c-0.656-0.505-2.858-2.128-3.516-2.422
				c-0.667-0.312-1.154-0.408-1.798-0.353c-0.908,0.064-1.57,0.336-2.09,0.856c-0.537,0.557-1.176,1.182-1.456,1.805
				c0.269-0.65,0.77-1.314,1.345-1.913c0.55-0.549,1.244-0.834,2.188-0.901c0.672-0.059,1.183,0.041,1.875,0.366
				c0.591,0.264,2.42,1.592,3.282,2.239c-0.03-0.204-0.896-5.883-6.604-5.542c0,0-2.849,0.23-3.388,1.693
				c0,0-0.005-0.002-0.013-0.003c-0.362,0.799-0.37,1.993-0.272,2.611c0.227-0.277,0.549-0.498,0.852-0.677
				c0.826-0.487,1.677-0.571,2.474-0.589l0.004,0.152c-0.775,0.019-1.603,0.101-2.399,0.568c-0.552,0.327-1.173,0.792-1.062,1.5
				c0.055,0.387,0.289,1.715,0.964,2.603c0.651,0.854,2.058,2.107,2.688,2.393l-0.065,0.141c-0.646-0.294-2.083-1.57-2.744-2.44
				c-0.699-0.916-0.938-2.276-0.995-2.671c-0.048-0.31,0.021-0.571,0.159-0.801c-0.096-0.68-0.113-2.028,0.237-2.818
				c-0.282-0.03-0.896,0.003-1.698,0.611c-1.115,0.848-2.372,1.354-1.758,4.394v0.001c0.129,0.536,0.288,1.152,0.372,1.37
				c0.185,0.471,0.581,1.069,0.92,1.391c0.253,0.241,1.321,0.924,2.263,1.525c0.845,0.539,1.643,1.05,1.869,1.247
				c0,0-1.111-0.582-1.953-1.117c-0.994-0.636-2.021-1.293-2.284-1.545c-0.354-0.334-0.767-0.955-0.958-1.445
				c-0.081-0.209-0.229-0.777-0.355-1.296c-0.323,0.355-1.111,1.402-0.551,2.646c0.693,1.54,1.977,2.892,4.093,3.314
				c2.118,0.425,2.07,1.531,2.618,2.077c0.521,0.523,1.868,0.95,3.871-0.438c2.002-1.385,3.734-2.387,3.58-5.119
				c0,0-0.273-1.075,0.277-1.853C90.982,36.47,90.797,35.824,90.627,35.449z M83.146,37.869c-0.435-0.507-1.073-1.612-0.941-2.481
				c0.078-0.524,0.502-1.268,0.902-1.52c0.48-0.306,1.643-0.359,2.423-0.057c0.725,0.28,1.251,0.89,1.389,1.402
				c0.198,0.688-0.037,1.433-0.369,2.001c-0.303,0.519-1.184,0.954-1.73,0.787c-0.775-0.239-1.52-1.269-1.48-2.056
				c0.015-0.327,0.481-1.155,1.403-1.021c0.674,0.1,1.044,0.447,1.08,0.982c0.021,0.28-0.071,0.668-0.401,0.833
				c-0.153,0.09-0.355,0.099-0.512,0.022c-0.134-0.066-0.143-0.198-0.162-0.352c0.017,0.129,0.17,0.184,0.229,0.213
				c0.109,0.055,0.26,0.045,0.372-0.02c0.247-0.124,0.339-0.435,0.321-0.687c-0.039-0.573-0.548-0.713-0.965-0.728
				c-0.224-0.009-0.425,0.07-0.576,0.227c-0.174,0.18-0.263,0.445-0.243,0.729c0.046,0.76,0.744,0.908,1.01,0.99
				c0.49,0.15,0.814-0.028,1.153-0.364c0.431-0.425,0.501-0.75,0.462-1.249c-0.039-0.501-0.345-1.172-1.022-1.435
				c-0.736-0.286-1.497-0.289-1.938-0.009c-0.359,0.228-0.61,0.705-0.73,1.173c-0.262,1.016,0.262,1.808,0.672,2.289
				c0.643,0.733,1.995,1.388,3.074,1.347c-0.03,0.002-0.207,0.151-0.746,0.21C85.28,39.155,83.792,38.611,83.146,37.869z
				 M89.102,38.351c-0.361,1.202-1.195,2.1-2.478,2.665c-0.604,0.255-1.312,0.384-2.029,0.384c-1.488-0.025-2.796-0.513-3.616-1.646
				c-0.022-0.032-0.132-0.266-0.132-0.266c0.852,1.434,3.477,2.332,5.716,1.386c1.239-0.544,2.043-1.408,2.393-2.566
				c0.229-0.765,0.031-2.161-0.801-2.606c0,0,0.141-0.021,0.18,0.001C89.211,36.202,89.347,37.536,89.102,38.351z"/>
		</g>
		<g>
			<path opacity="0.6" d="M80.184,33.907c0-0.007-0.002-0.013-0.003-0.021c-0.045,0.057-0.089,0.117-0.125,0.179
				c0.005,0.031,0.009,0.062,0.014,0.091L80.184,33.907z"/>
			<path opacity="0.6" d="M90.627,35.449c-0.656-0.505-2.858-2.128-3.516-2.422c-0.667-0.312-1.154-0.408-1.798-0.353
				c-0.908,0.064-1.57,0.336-2.09,0.856c-0.537,0.557-1.176,1.182-1.456,1.805c0.269-0.65,0.77-1.314,1.345-1.913
				c0.55-0.549,1.244-0.834,2.188-0.901c0.672-0.059,1.183,0.041,1.875,0.366c0.591,0.264,2.42,1.592,3.282,2.239
				c-0.03-0.204-0.896-5.883-6.604-5.542c0,0-2.849,0.23-3.388,1.693c0,0-0.005-0.002-0.013-0.003
				c-0.362,0.799-0.37,1.993-0.272,2.611c0.227-0.277,0.549-0.498,0.852-0.677c0.826-0.487,1.677-0.571,2.474-0.589l0.004,0.152
				c-0.775,0.019-1.603,0.101-2.399,0.568c-0.552,0.327-1.173,0.792-1.062,1.5c0.055,0.387,0.289,1.715,0.964,2.603
				c0.651,0.854,2.058,2.107,2.688,2.393l-0.065,0.141c-0.646-0.294-2.083-1.57-2.744-2.44c-0.699-0.916-0.938-2.276-0.995-2.671
				c-0.048-0.31,0.021-0.571,0.159-0.801c-0.096-0.68-0.113-2.028,0.237-2.818c-0.282-0.03-0.896,0.003-1.698,0.611
				c-1.115,0.848-2.372,1.354-1.758,4.394v0.001c0.129,0.536,0.288,1.152,0.372,1.37c0.185,0.471,0.581,1.069,0.92,1.391
				c0.253,0.241,1.321,0.924,2.263,1.525c0.845,0.539,1.643,1.05,1.869,1.247c0,0-1.111-0.582-1.953-1.117
				c-0.994-0.636-2.021-1.293-2.284-1.545c-0.354-0.334-0.767-0.955-0.958-1.445c-0.081-0.209-0.229-0.777-0.355-1.296
				c-0.323,0.355-1.111,1.402-0.551,2.646c0.693,1.54,1.977,2.892,4.093,3.314c2.118,0.425,2.07,1.531,2.618,2.077
				c0.521,0.523,1.868,0.95,3.871-0.438c2.002-1.385,3.734-2.387,3.58-5.119c0,0-0.273-1.075,0.277-1.853
				C90.982,36.47,90.797,35.824,90.627,35.449z M83.146,37.869c-0.435-0.507-1.073-1.612-0.941-2.481
				c0.078-0.524,0.502-1.268,0.902-1.52c0.48-0.306,1.643-0.359,2.423-0.057c0.725,0.28,1.251,0.89,1.389,1.402
				c0.198,0.688-0.037,1.433-0.369,2.001c-0.303,0.519-1.184,0.954-1.73,0.787c-0.775-0.239-1.52-1.269-1.48-2.056
				c0.015-0.327,0.481-1.155,1.403-1.021c0.674,0.1,1.044,0.447,1.08,0.982c0.021,0.28-0.071,0.668-0.401,0.833
				c-0.153,0.09-0.355,0.099-0.512,0.022c-0.134-0.066-0.143-0.198-0.162-0.352c0.017,0.129,0.17,0.184,0.229,0.213
				c0.109,0.055,0.26,0.045,0.372-0.02c0.247-0.124,0.339-0.435,0.321-0.687c-0.039-0.573-0.548-0.713-0.965-0.728
				c-0.224-0.009-0.425,0.07-0.576,0.227c-0.174,0.18-0.263,0.445-0.243,0.729c0.046,0.76,0.744,0.908,1.01,0.99
				c0.49,0.15,0.814-0.028,1.153-0.364c0.431-0.425,0.501-0.75,0.462-1.249c-0.039-0.501-0.345-1.172-1.022-1.435
				c-0.736-0.286-1.497-0.289-1.938-0.009c-0.359,0.228-0.61,0.705-0.73,1.173c-0.262,1.016,0.262,1.808,0.672,2.289
				c0.643,0.733,1.995,1.388,3.074,1.347c-0.03,0.002-0.207,0.151-0.746,0.21C85.28,39.155,83.792,38.611,83.146,37.869z
				 M89.102,38.351c-0.361,1.202-1.195,2.1-2.478,2.665c-0.604,0.255-1.312,0.384-2.029,0.384c-1.488-0.025-2.796-0.513-3.616-1.646
				c-0.022-0.032-0.132-0.266-0.132-0.266c0.852,1.434,3.477,2.332,5.716,1.386c1.239-0.544,2.043-1.408,2.393-2.566
				c0.229-0.765,0.031-2.161-0.801-2.606c0,0,0.141-0.021,0.18,0.001C89.211,36.202,89.347,37.536,89.102,38.351z"/>
		</g>
	</g>
</g>
<path d="M51.743,29c-4.565,0.618-6.468,3.067-6.468,3.067l-1.094,0.166l-0.166-0.189l-1.286,0.021
	c-0.067-0.082-2.06-2.458-6.718-3.065c0,0-2.436,4.779,0.252,9.44c0,0,5.102-1.722,6.279-2.956l1.449-0.207l1.369,0.09
	c0.936,1.233,6.478,2.978,6.478,2.978C53.907,33.946,51.743,29,51.743,29z"/>
</svg>
