<?xml version="1.0" encoding="utf-8"?>
<!-- Generator: Adobe Illustrator 16.0.4, SVG Export Plug-In . SVG Version: 6.00 Build 0)  -->
<!DOCTYPE svg PUBLIC "-//W3C//DTD SVG 1.1//EN" "http://www.w3.org/Graphics/SVG/1.1/DTD/svg11.dtd">
<svg version="1.1" id="Layer_1" xmlns="http://www.w3.org/2000/svg" xmlns:xlink="http://www.w3.org/1999/xlink" x="0px" y="0px"
	 width="19.917px" height="21.084px" viewBox="0 0 19.917 21.084" enable-background="new 0 0 19.917 21.084" xml:space="preserve">
<g>
	<path opacity="0.7" fill-rule="evenodd" clip-rule="evenodd" fill="#FFFFFF" d="M19.188,7.61c0,0-1.048-7.805-8.743-7.346
		c0,0-3.771,0.306-4.485,2.242c0,0-0.998-0.354-2.476,0.768c-1.478,1.12-3.142,1.79-2.327,5.816c0,0-1.816,1.637-0.898,3.675
		c0.917,2.038,2.617,3.828,5.42,4.389c2.803,0.561,2.74,2.025,3.463,2.749c0.691,0.692,2.476,1.256,5.125-0.579
		c2.65-1.834,4.944-3.159,4.739-6.777c0,0-0.361-1.424,0.367-2.452C20.142,9.011,19.188,7.61,19.188,7.61z"/>
	<g>
		<g>
			<path fill-rule="evenodd" clip-rule="evenodd" d="M5.711,6.27C5.71,6.262,5.709,6.252,5.708,6.244
				C5.646,6.319,5.59,6.397,5.542,6.479c0.005,0.042,0.012,0.084,0.018,0.121L5.711,6.27z"/>
			<path fill-rule="evenodd" clip-rule="evenodd" d="M19.537,8.312c-0.871-0.67-3.786-2.817-4.655-3.206
				c-0.883-0.414-1.529-0.541-2.382-0.468c-1.199,0.086-2.077,0.446-2.766,1.135C9.024,6.51,8.179,7.337,7.808,8.16
				c0.355-0.859,1.018-1.738,1.781-2.53c0.727-0.727,1.646-1.105,2.896-1.194c0.891-0.077,1.565,0.055,2.482,0.484
				c0.783,0.351,3.202,2.108,4.345,2.966c-0.039-0.271-1.186-7.788-8.742-7.337c0,0-3.771,0.306-4.485,2.242
				c0,0-0.006-0.002-0.016-0.005C5.587,3.845,5.577,5.425,5.708,6.244c0.3-0.369,0.725-0.66,1.127-0.896
				c1.093-0.645,2.22-0.756,3.274-0.781l0.005,0.204C9.088,4.794,7.992,4.901,6.938,5.523C6.207,5.954,5.385,6.57,5.533,7.508
				c0.073,0.512,0.381,2.27,1.276,3.444c0.862,1.131,2.723,2.789,3.557,3.168l-0.085,0.186c-0.854-0.389-2.757-2.079-3.634-3.23
				C5.722,9.862,5.406,8.062,5.332,7.539C5.267,7.131,5.36,6.782,5.542,6.479C5.414,5.58,5.391,3.795,5.856,2.748
				C5.481,2.709,4.67,2.753,3.608,3.559C2.13,4.68,0.466,5.349,1.282,9.375L1.281,9.376c0.17,0.708,0.38,1.525,0.493,1.812
				c0.244,0.624,0.768,1.415,1.217,1.84c0.334,0.321,1.749,1.225,2.996,2.021c1.119,0.716,2.175,1.391,2.474,1.652
				c0,0-1.472-0.771-2.584-1.48C4.56,14.38,3.199,13.51,2.851,13.177c-0.469-0.443-1.014-1.266-1.267-1.914
				c-0.107-0.277-0.304-1.029-0.471-1.716c-0.428,0.472-1.471,1.855-0.73,3.503C1.3,15.088,3,16.878,5.803,17.438
				c2.803,0.561,2.74,2.026,3.463,2.749c0.692,0.692,2.476,1.256,5.126-0.579c2.65-1.834,4.943-3.159,4.739-6.777
				c0,0-0.361-1.424,0.367-2.452C20.006,9.662,19.762,8.809,19.537,8.312z M9.632,11.514C9.057,10.843,8.211,9.381,8.384,8.23
				C8.489,7.536,9.051,6.554,9.58,6.219c0.635-0.405,2.174-0.477,3.208-0.076C13.746,6.515,14.444,7.321,14.626,8
				c0.262,0.91-0.051,1.896-0.489,2.647c-0.4,0.688-1.566,1.264-2.291,1.044c-1.025-0.318-2.011-1.68-1.959-2.724
				c0.021-0.433,0.636-1.526,1.857-1.349c0.893,0.13,1.382,0.591,1.431,1.3c0.026,0.372-0.097,0.885-0.532,1.102
				c-0.202,0.119-0.472,0.132-0.677,0.03c-0.179-0.088-0.188-0.262-0.215-0.465c0.021,0.172,0.224,0.242,0.305,0.282
				c0.145,0.072,0.342,0.061,0.49-0.026c0.329-0.165,0.449-0.574,0.426-0.909c-0.052-0.758-0.724-0.941-1.277-0.963
				c-0.294-0.012-0.562,0.093-0.762,0.3c-0.23,0.238-0.348,0.591-0.322,0.966c0.061,1.005,0.984,1.201,1.337,1.311
				c0.649,0.197,1.077-0.039,1.527-0.483c0.569-0.561,0.662-0.993,0.611-1.654c-0.051-0.662-0.457-1.549-1.354-1.897
				C11.756,6.132,10.75,6.128,10.167,6.5C9.689,6.802,9.358,7.432,9.198,8.052c-0.347,1.345,0.347,2.394,0.892,3.029
				c0.848,0.973,2.64,1.838,4.067,1.783c-0.039,0.002-0.274,0.201-0.987,0.278C12.457,13.219,10.488,12.496,9.632,11.514z
				 M17.518,12.152c-0.48,1.593-1.584,2.779-3.282,3.527c-0.799,0.337-1.735,0.508-2.686,0.509c-1.97-0.034-3.7-0.679-4.786-2.181
				c-0.029-0.042-0.175-0.351-0.175-0.351c1.127,1.898,4.603,3.087,7.567,1.835c1.639-0.722,2.705-1.866,3.167-3.398
				c0.305-1.013,0.042-2.86-1.061-3.45c0,0,0.188-0.027,0.239,0.002C17.662,9.308,17.841,11.074,17.518,12.152z"/>
		</g>
		<g>
			<path opacity="0.6" d="M5.711,6.27C5.71,6.262,5.709,6.252,5.708,6.244C5.646,6.319,5.59,6.397,5.542,6.479
				c0.005,0.042,0.012,0.084,0.018,0.121L5.711,6.27z"/>
			<path opacity="0.6" d="M19.537,8.312c-0.871-0.67-3.786-2.817-4.655-3.206c-0.883-0.414-1.529-0.541-2.382-0.468
				c-1.199,0.086-2.077,0.446-2.766,1.135C9.024,6.51,8.179,7.337,7.808,8.16c0.355-0.859,1.018-1.738,1.781-2.53
				c0.727-0.727,1.646-1.105,2.896-1.194c0.891-0.077,1.565,0.055,2.482,0.484c0.783,0.351,3.202,2.108,4.345,2.966
				c-0.039-0.271-1.186-7.788-8.742-7.337c0,0-3.771,0.306-4.485,2.242c0,0-0.006-0.002-0.016-0.005
				C5.587,3.845,5.577,5.425,5.708,6.244c0.3-0.369,0.725-0.66,1.127-0.896c1.093-0.645,2.22-0.756,3.274-0.781l0.005,0.204
				C9.088,4.794,7.992,4.901,6.938,5.523C6.207,5.954,5.385,6.57,5.533,7.508c0.073,0.512,0.381,2.27,1.276,3.444
				c0.862,1.131,2.723,2.789,3.557,3.168l-0.085,0.186c-0.854-0.389-2.757-2.079-3.634-3.23C5.722,9.862,5.406,8.062,5.332,7.539
				C5.267,7.131,5.36,6.782,5.542,6.479C5.414,5.58,5.391,3.795,5.856,2.748C5.481,2.709,4.67,2.753,3.608,3.559
				C2.13,4.68,0.466,5.349,1.282,9.375L1.281,9.376c0.17,0.708,0.38,1.525,0.493,1.812c0.244,0.624,0.768,1.415,1.217,1.84
				c0.334,0.321,1.749,1.225,2.996,2.021c1.119,0.716,2.175,1.391,2.474,1.652c0,0-1.472-0.771-2.584-1.48
				C4.56,14.38,3.199,13.51,2.851,13.177c-0.469-0.443-1.014-1.266-1.267-1.914c-0.107-0.277-0.304-1.029-0.471-1.716
				c-0.428,0.472-1.471,1.855-0.73,3.503C1.3,15.088,3,16.878,5.803,17.438c2.803,0.561,2.74,2.026,3.463,2.749
				c0.692,0.692,2.476,1.256,5.126-0.579c2.65-1.834,4.943-3.159,4.739-6.777c0,0-0.361-1.424,0.367-2.452
				C20.006,9.662,19.762,8.809,19.537,8.312z M9.632,11.514C9.057,10.843,8.211,9.381,8.384,8.23
				C8.489,7.536,9.051,6.554,9.58,6.219c0.635-0.405,2.174-0.477,3.208-0.076C13.746,6.515,14.444,7.321,14.626,8
				c0.262,0.91-0.051,1.896-0.489,2.647c-0.4,0.688-1.566,1.264-2.291,1.044c-1.025-0.318-2.011-1.68-1.959-2.724
				c0.021-0.433,0.636-1.526,1.857-1.349c0.893,0.13,1.382,0.591,1.431,1.3c0.026,0.372-0.097,0.885-0.532,1.102
				c-0.202,0.119-0.472,0.132-0.677,0.03c-0.179-0.088-0.188-0.262-0.215-0.465c0.021,0.172,0.224,0.242,0.305,0.282
				c0.145,0.072,0.342,0.061,0.49-0.026c0.329-0.165,0.449-0.574,0.426-0.909c-0.052-0.758-0.724-0.941-1.277-0.963
				c-0.294-0.012-0.562,0.093-0.762,0.3c-0.23,0.238-0.348,0.591-0.322,0.966c0.061,1.005,0.984,1.201,1.337,1.311
				c0.649,0.197,1.077-0.039,1.527-0.483c0.569-0.561,0.662-0.993,0.611-1.654c-0.051-0.662-0.457-1.549-1.354-1.897
				C11.756,6.132,10.75,6.128,10.167,6.5C9.689,6.802,9.358,7.432,9.198,8.052c-0.347,1.345,0.347,2.394,0.892,3.029
				c0.848,0.973,2.64,1.838,4.067,1.783c-0.039,0.002-0.274,0.201-0.987,0.278C12.457,13.219,10.488,12.496,9.632,11.514z
				 M17.518,12.152c-0.48,1.593-1.584,2.779-3.282,3.527c-0.799,0.337-1.735,0.508-2.686,0.509c-1.97-0.034-3.7-0.679-4.786-2.181
				c-0.029-0.042-0.175-0.351-0.175-0.351c1.127,1.898,4.603,3.087,7.567,1.835c1.639-0.722,2.705-1.866,3.167-3.398
				c0.305-1.013,0.042-2.86-1.061-3.45c0,0,0.188-0.027,0.239,0.002C17.662,9.308,17.841,11.074,17.518,12.152z"/>
		</g>
	</g>
</g>
</svg>
