<?xml version="1.0" encoding="utf-8"?>
<!-- Generator: Adobe Illustrator 16.0.4, SVG Export Plug-In . SVG Version: 6.00 Build 0)  -->
<!DOCTYPE svg PUBLIC "-//W3C//DTD SVG 1.1//EN" "http://www.w3.org/Graphics/SVG/1.1/DTD/svg11.dtd">
<svg version="1.1" id="Layer_1" xmlns="http://www.w3.org/2000/svg" xmlns:xlink="http://www.w3.org/1999/xlink" x="0px" y="0px"
	 width="19.917px" height="21.084px" viewBox="0 0 19.917 21.084" enable-background="new 0 0 19.917 21.084" xml:space="preserve">
<path opacity="0.7" fill-rule="evenodd" clip-rule="evenodd" fill="#FFFFFF" d="M15.715,4.485c0,0-5.415-5.717-11.389-0.843
	c0,0-2.879,2.454-2.325,4.442c0,0-1.017,0.296-1.56,2.071c-0.543,1.773-1.5,3.289,1.516,6.078c0,0-0.516,2.391,1.422,3.506
	c1.936,1.117,4.361,1.574,6.963,0.389s3.406,0.04,4.417,0.203c0.966,0.157,2.743-0.43,3.817-3.467
	c1.078-3.039,2.162-5.455-0.121-8.27c0,0-1.125-0.943-1.137-2.203C17.307,5.063,15.715,4.485,15.715,4.485z"/>
<g>
	<g>
		<path fill-rule="evenodd" clip-rule="evenodd" fill="#C1272D" d="M4,11.282c-0.006-0.006-0.012-0.013-0.018-0.019
			c-0.006,0.098-0.006,0.193,0.002,0.288c0.029,0.031,0.06,0.062,0.086,0.088L4,11.282z"/>
		<path fill-rule="evenodd" clip-rule="evenodd" fill="#C1272D" d="M16.409,4.85c-1.099-0.033-4.719-0.07-5.651,0.124
			C9.799,5.154,9.201,5.43,8.552,5.987C7.629,6.759,7.127,7.564,6.973,8.525c-0.145,1.014-0.347,2.18-0.166,3.064
			c-0.215-0.905-0.191-2.006-0.036-3.095c0.165-1.015,0.688-1.858,1.65-2.663c0.677-0.583,1.302-0.871,2.296-1.059
			c0.841-0.174,3.831-0.163,5.259-0.137c-0.19-0.197-5.518-5.623-11.382-0.836c0,0-2.881,2.454-2.326,4.442
			c0,0-0.006,0.001-0.016,0.005c0.229,1.141,1.146,2.428,1.73,3.016c0.027-0.475,0.201-0.959,0.39-1.387
			c0.51-1.162,1.358-1.911,2.198-2.549L6.695,7.49C5.875,8.109,5.049,8.839,4.559,9.959c-0.342,0.777-0.647,1.758,0.021,2.432
			c0.358,0.373,1.637,1.618,3.05,2.047c1.36,0.413,3.84,0.67,4.737,0.488l0.041,0.201c-0.921,0.184-3.453-0.074-4.838-0.494
			c-1.459-0.443-2.77-1.719-3.135-2.1c-0.291-0.293-0.42-0.629-0.451-0.981c-0.629-0.655-1.691-2.089-1.927-3.21
			c-0.327,0.188-0.959,0.697-1.349,1.972c-0.543,1.774-1.502,3.29,1.516,6.079v0.001c0.552,0.475,1.2,1.015,1.459,1.183
			c0.563,0.362,1.451,0.697,2.064,0.779c0.459,0.064,2.135-0.029,3.611-0.113c1.326-0.074,2.577-0.145,2.973-0.107
			c0,0-1.645,0.235-2.962,0.311c-1.56,0.088-3.172,0.178-3.649,0.112c-0.64-0.085-1.562-0.433-2.147-0.812
			c-0.249-0.162-0.849-0.656-1.386-1.115c-0.07,0.633-0.107,2.365,1.457,3.268c1.938,1.117,4.362,1.574,6.963,0.389
			c2.603-1.186,3.408,0.041,4.418,0.203c0.966,0.157,2.742-0.43,3.818-3.468s2.16-5.454-0.121-8.269c0,0-1.127-0.943-1.137-2.204
			C17.578,5.672,16.881,5.122,16.409,4.85z M10.249,13.242c-0.859-0.208-2.4-0.898-2.934-1.934c-0.32-0.624-0.439-1.75-0.206-2.33
			c0.277-0.701,1.483-1.659,2.558-1.939c0.994-0.259,2.032-0.013,2.576,0.432c0.744,0.585,1.068,1.566,1.152,2.434
			c0.078,0.793-0.531,1.941-1.247,2.187c-1.019,0.342-2.614-0.187-3.183-1.063c-0.236-0.361-0.377-1.609,0.718-2.18
			c0.8-0.416,1.466-0.33,1.921,0.217c0.238,0.287,0.439,0.775,0.213,1.205c-0.095,0.215-0.306,0.383-0.531,0.42
			c-0.197,0.033-0.307-0.102-0.447-0.25c0.119,0.126,0.324,0.064,0.412,0.051c0.16-0.026,0.313-0.152,0.383-0.309
			c0.17-0.326,0.029-0.729-0.187-0.986c-0.485-0.585-1.138-0.341-1.599-0.034C9.602,9.324,9.447,9.564,9.405,9.85
			c-0.047,0.328,0.064,0.684,0.305,0.973c0.637,0.779,1.5,0.398,1.85,0.28c0.643-0.22,0.852-0.662,0.957-1.286
			c0.133-0.787-0.045-1.192-0.473-1.699s-1.276-0.988-2.208-0.746C8.823,7.635,8.004,8.22,7.749,8.863
			c-0.211,0.523-0.11,1.229,0.123,1.824c0.505,1.293,1.682,1.738,2.494,1.936c1.258,0.293,3.217-0.054,4.343-0.934
			c-0.03,0.025-0.104,0.324-0.638,0.804C13.537,12.973,11.518,13.538,10.249,13.242z M17.018,9.146
			c0.541,1.573,0.342,3.182-0.599,4.781c-0.45,0.74-1.109,1.427-1.881,1.984c-1.616,1.124-3.396,1.613-5.156,1.031
			c-0.049-0.018-0.348-0.183-0.348-0.183c2.025,0.88,5.539-0.188,7.211-2.938c0.906-1.544,1.101-3.096,0.58-4.609
			c-0.346-0.999-1.639-2.344-2.879-2.177c0,0,0.137-0.132,0.195-0.139C15.471,6.756,16.649,8.084,17.018,9.146z"/>
	</g>
	<g>
		<path opacity="0.6" d="M4,11.282c-0.006-0.006-0.012-0.013-0.018-0.019c-0.006,0.098-0.006,0.193,0.002,0.288
			c0.029,0.031,0.06,0.062,0.086,0.088L4,11.282z"/>
		<path opacity="0.6" d="M16.409,4.85c-1.099-0.033-4.719-0.07-5.651,0.124C9.799,5.154,9.201,5.43,8.552,5.987
			C7.629,6.759,7.127,7.564,6.973,8.525c-0.145,1.014-0.347,2.18-0.166,3.064c-0.215-0.905-0.191-2.006-0.036-3.095
			c0.165-1.015,0.688-1.858,1.65-2.663c0.677-0.583,1.302-0.871,2.296-1.059c0.841-0.174,3.831-0.163,5.259-0.137
			c-0.19-0.197-5.518-5.623-11.382-0.836c0,0-2.881,2.454-2.326,4.442c0,0-0.006,0.001-0.016,0.005
			c0.229,1.141,1.146,2.428,1.73,3.016c0.027-0.475,0.201-0.959,0.39-1.387c0.51-1.162,1.358-1.911,2.198-2.549L6.695,7.49
			C5.875,8.109,5.049,8.839,4.559,9.959c-0.342,0.777-0.647,1.758,0.021,2.432c0.358,0.373,1.637,1.618,3.05,2.047
			c1.36,0.413,3.84,0.67,4.737,0.488l0.041,0.201c-0.921,0.184-3.453-0.074-4.838-0.494c-1.459-0.443-2.77-1.719-3.135-2.1
			c-0.291-0.293-0.42-0.629-0.451-0.981c-0.629-0.655-1.691-2.089-1.927-3.21c-0.327,0.188-0.959,0.697-1.349,1.972
			c-0.543,1.774-1.502,3.29,1.516,6.079v0.001c0.552,0.475,1.2,1.015,1.459,1.183c0.563,0.362,1.451,0.697,2.064,0.779
			c0.459,0.064,2.135-0.029,3.611-0.113c1.326-0.074,2.577-0.145,2.973-0.107c0,0-1.645,0.235-2.962,0.311
			c-1.56,0.088-3.172,0.178-3.649,0.112c-0.64-0.085-1.562-0.433-2.147-0.812c-0.249-0.162-0.849-0.656-1.386-1.115
			c-0.07,0.633-0.107,2.365,1.457,3.268c1.938,1.117,4.362,1.574,6.963,0.389c2.603-1.186,3.408,0.041,4.418,0.203
			c0.966,0.157,2.742-0.43,3.818-3.468s2.16-5.454-0.121-8.269c0,0-1.127-0.943-1.137-2.204C17.578,5.672,16.881,5.122,16.409,4.85z
			 M10.249,13.242c-0.859-0.208-2.4-0.898-2.934-1.934c-0.32-0.624-0.439-1.75-0.206-2.33c0.277-0.701,1.483-1.659,2.558-1.939
			c0.994-0.259,2.032-0.013,2.576,0.432c0.744,0.585,1.068,1.566,1.152,2.434c0.078,0.793-0.531,1.941-1.247,2.187
			c-1.019,0.342-2.614-0.187-3.183-1.063c-0.236-0.361-0.377-1.609,0.718-2.18c0.8-0.416,1.466-0.33,1.921,0.217
			c0.238,0.287,0.439,0.775,0.213,1.205c-0.095,0.215-0.306,0.383-0.531,0.42c-0.197,0.033-0.307-0.102-0.447-0.25
			c0.119,0.126,0.324,0.064,0.412,0.051c0.16-0.026,0.313-0.152,0.383-0.309c0.17-0.326,0.029-0.729-0.187-0.986
			c-0.485-0.585-1.138-0.341-1.599-0.034C9.602,9.324,9.447,9.564,9.405,9.85c-0.047,0.328,0.064,0.684,0.305,0.973
			c0.637,0.779,1.5,0.398,1.85,0.28c0.643-0.22,0.852-0.662,0.957-1.286c0.133-0.787-0.045-1.192-0.473-1.699
			s-1.276-0.988-2.208-0.746C8.823,7.635,8.004,8.22,7.749,8.863c-0.211,0.523-0.11,1.229,0.123,1.824
			c0.505,1.293,1.682,1.738,2.494,1.936c1.258,0.293,3.217-0.054,4.343-0.934c-0.03,0.025-0.104,0.324-0.638,0.804
			C13.537,12.973,11.518,13.538,10.249,13.242z M17.018,9.146c0.541,1.573,0.342,3.182-0.599,4.781
			c-0.45,0.74-1.109,1.427-1.881,1.984c-1.616,1.124-3.396,1.613-5.156,1.031c-0.049-0.018-0.348-0.183-0.348-0.183
			c2.025,0.88,5.539-0.188,7.211-2.938c0.906-1.544,1.101-3.096,0.58-4.609c-0.346-0.999-1.639-2.344-2.879-2.177
			c0,0,0.137-0.132,0.195-0.139C15.471,6.756,16.649,8.084,17.018,9.146z"/>
	</g>
</g>
</svg>
